<svg height="512" viewBox="0 0 53 60" width="512" xmlns="http://www.w3.org/2000/svg"><g id="Page-1" fill="none" fill-rule="evenodd"><g id="050---Digital-Brain"><g id="Icons_copy_2" transform="translate(0 5)"><path id="Path" d="m11.434 4.168c-1.3474767.48322208-2.40127701 1.55419999-2.86265015 2.90931327-.46137315 1.35511327-.28001852 2.84662229.49265015 4.05168673l-.031.092c-3.32802245.1758479-5.93761092 2.9233379-5.942 6.256.00115244.5687547.07850734 1.1347909.23 1.683-1.41359101 1.2369695-2.25254719 3.0035705-2.31789385 4.8808193-.06534667 1.8772487.64873758 3.6979107 1.97289385 5.0301807-1.68422174 1.3354162-2.37748501 3.5668166-1.7465253 5.6215256s2.45708569 3.5124558 4.6005253 3.6724744c-.4293708.8116926-.65194205 1.716747-.648 2.635-.0010622 1.5253202.60439852 2.9884724 1.68296304 4.067037 1.07856452 1.0785645 2.54171676 1.6840252 4.06703696 1.682963 1.2534975 2.979953 4.4317633 4.6654098 7.6018236 4.0313008 3.1700602-.6341091 5.4554278-3.4124598 5.4661764-6.6453008v-40.25s0-8.928-12.566.282z" fill="#e8edfc"/><path id="Path" d="m18.755.226c2.245.829 2.245 3.66 2.245 3.66v40.25c-.0014655 3.1622043-2.184725 5.9051676-5.266 6.616 2.0119797.4741589 4.1302399-.003455 5.7440665-1.2951409 1.6138265-1.291686 2.5438491-3.2538786 2.5219335-5.3208591v-40.25s0-4.986-5.245-3.66z" fill="#cad9fc"/></g><g id="Icons_copy" fill="#fff" transform="translate(0 5)"><path id="Path" d="m13.932 46.749c-1.5251468.0010619-2.9881473-.6042616-4.066683-1.6826097-1.0785357-1.0783482-1.68411365-2.5412433-1.683317-4.0663903-.00377751-.9179149.21878889-1.8226062.648-2.634-2.14343961-.1600186-3.96956559-1.6177654-4.6005253-3.6724744s.06230356-4.2861094 1.7465253-5.6215256c-1.32415627-1.33227-2.03824052-3.152932-1.97289385-5.0301807.06534666-1.8772488.90430284-3.6438498 2.31789385-4.8808193-.15149266-.5482091-.22884756-1.1142453-.23-1.683.00438908-3.3326621 2.61397755-6.0801521 5.942-6.256l.031-.092c-.7726687-1.20506444-.9540233-2.69657346-.4926502-4.05168673.4613732-1.35511328 1.5151735-2.42609119 2.8626502-2.90931327 2.1743108-1.7554124 4.6571549-3.08958925 7.321-3.934-.1737164-.06465945-.3522726-.11548445-.534-.152l-.08-.014c-.467128-.07555767-.9427449-.08296813-1.412-.022l-.119.016c-1.843.249-4.456 1.379-8.176 4.106-1.3474767.48322208-2.40127701 1.55419999-2.86265015 2.90931327-.46137315 1.35511327-.28001852 2.84662229.49265015 4.05168673l-.031.092c-3.32802245.1758479-5.93761092 2.9233379-5.942 6.256.00115244.5687547.07850734 1.1347909.23 1.683-1.41359101 1.2369695-2.25254719 3.0035705-2.31789385 4.8808193-.06534667 1.8772487.64873758 3.6979107 1.97289385 5.0301807-1.68346979 1.3355928-2.37620783 3.5665308-1.74532682 5.6207624.630881 2.0542317 2.45640078 3.5117803 4.59932682 3.6722376-.4293708.8116926-.65194205 1.716747-.648 2.635-.0010622 1.5253202.60439852 2.9884724 1.68296304 4.067037 1.07856452 1.0785645 2.54171676 1.6840252 4.06703696 1.682963.9450222 2.2557208 3.0296574 3.8293187 5.458 4.12.26991.0394534.5422279.0601696.815.062.52031-.0016112 1.0387111-.0630141 1.545-.183-2.1620441-.4681873-3.9601009-1.9609701-4.818-4z"/></g><g id="Icons"><path id="Path" d="m2.305 31.125-1.895.64c-1.00901352-2.9850478-.12014144-6.2839789 2.252-8.358l1.317 1.5c-1.75966369 1.5461857-2.41956507 3.9973606-1.674 6.218z" fill="#fff"/><g fill="#428dff"><path id="Path" d="m1.248 28.486c-.55228475.0027614-1.00223858-.4427153-1.005-.995s.44271525-1.0022386.995-1.005h.01c.55228475 0 1 .4477153 1 1s-.44771525 1-1 1z"/><path id="Path" d="m24 0c-.5522847 0-1 .44771525-1 1v3.754c-.1473966-.10262823-.3017711-.19485196-.462-.276-2.531-1.278-6.332-.03-11.614 3.822-2.83400384 1.10084369-4.28974337 4.2460363-3.295 7.119-3.247656.7999928-5.53215078 3.7102692-5.538 7.055.0014135.6582891.0908734 1.3134315.266 1.948.11918679.4336832.51323754.7344384.963.735.08987022-.0001592.17932044-.0122653.266-.036.53221787-.146041.84550446-.6956352.7-1.228-.12762902-.462238-.19287388-.9394671-.194-1.419-.00000003-1.8838615 1.00502809-3.6246213 2.63649998-4.566552 1.63147189-.9419308 3.64152812-.9419308 5.27300002 0 1.6314719.9419307 2.6365 2.6826905 2.6365 4.566552 0 .5522847.4477153 1 1 1s1-.4477153 1-1c-.0065313-3.8830449-3.0610919-7.0766893-6.94-7.256-.46498377-.9497112-.50140401-2.0529897-.10006597-3.0312989s1.20207907-1.7381537 2.20006597-2.0877011c.3934525-.14620203.8102759-.21940029 1.23-.216 2.0435161.00219583 3.700493 1.6564901 3.706 3.7 0 .5522847.4477153 1 1 1s1-.4477153 1-1c-.0033197-2.4894092-1.6182273-4.69008499-3.992-5.44 4.108-2.5 6.05-2.311 6.889-1.893 1.334.678 1.369 2.621 1.369 2.636v12.158c-.642237-.3972316-1.3818492-.6090438-2.137-.612-.5522847 0-1 .4477153-1 1s.4477153 1 1 1c1.1789959.0011003 2.1347958.9560056 2.137 2.135v19.373c-1.4742937-1.6538528-3.5844254-2.5997739-5.8-2.6-.5522847 0-1 .4477153-1 1s.4477153 1 1 1c2.9108538-.0033425 5.3732993 2.1513986 5.7562485 5.0369541.3829491 2.8855556-1.4322342 5.6079913-4.2431991 6.3640055-2.8109648.7560141-5.7468849-.6886037-6.8630494-3.3769596-.1552379-.3721346-.5187843-.6146304-.922-.615-2.62003013-.0055061-4.74214955-2.1289669-4.746-4.749-.00316233-.7535271.17883765-1.4962931.53-2.163.1598181-.2989587.15729601-.6585284-.00670005-.9552158-.16399606-.2966875-.46713322-.49009-.80529995-.5137842-2.19760332-.1743743-3.89389359-2.0054979-3.9-4.21.00135152-1.0022643.36261171-1.9707113 1.018-2.729 1.36632817 1.0647455 3.04979788 1.641392 4.782 1.638.55228475 0 1-.4477153 1-1s-.44771525-1-1-1c-1.54195487.0044472-3.02172014-.6076212-4.11-1.7-.62306281-.6335944-1.09512004-1.3996192-1.381-2.241-.19553304-.4733306-.69709519-.7437562-1.2-.647-.27821422.0541165-.5177348.2296297-.65315687.4786128-.13542208.2489832-.15260002.5454286-.04684313.8083872.27360155.8051534.6776513 1.5598751 1.196 2.234-1.03465079 1.1374459-1.60706687 2.6203781-1.605 4.158.00938913 2.7499784 1.81487598 5.1708245 4.448 5.964-.55951169 1.9291063-.23096089 4.0071742.89638347 5.6695818 1.12734436 1.6624077 2.93639241 2.7364918 4.93561653 2.9304182 1.1750819 2.2762883 3.3954031 3.8282396 5.9368511 4.1497168 2.5414481.3214772 5.0782759-.6287247 6.7831489-2.5407168v4.669c0 .5522847.4477153 1 1 1s1-.4477153 1-1v-58c0-.55228475-.4477153-1-1-1z"/><path id="Path" d="m19.58 26.052c-.3904999-.3903819-1.0235001-.3903819-1.414 0-1.6593015 1.6534801-4.1503434 2.1465065-6.3143886 1.2497422-2.16404532-.8967642-3.57621079-3.0072507-3.5796114-5.3497422 0-.5522847-.44771525-1-1-1s-1 .4477153-1 1c.00466799 3.621412 2.50127381 6.7632918 6.028 7.586-.4921264 1.2968826-1.6661064 2.2113066-3.044 2.371-.35894426.034158-.67170565.258904-.8185623.5882076-.14685666.3293037-.10506529.7121665.10937679 1.0020326s.56832482.4418446.92618551.3977598c2.3198597-.2658447 4.247023-1.9114278 4.873-4.161 1.9716824-.0606084 3.8455975-.8727098 5.238-2.27.3892795-.3916033.3874888-1.0246054-.004-1.414z"/><path id="Path" d="m17.728 38.113c.5522847 0 1-.4477153 1-1s-.4477153-1-1-1c-4.0151017.0044079-7.2690401 3.2578989-7.274 7.273 0 .046.007.092.008.138-.363787-.0586493-.73152481-.0894056-1.1-.092-.55228475 0-1 .4477153-1 1s.44771525 1 1 1c2.9096593.0021984 5.2689379 2.3583462 5.275 5.268 0 .5522847.4477153 1 1 1s1-.4477153 1-1c-.0042969-2.7897213-1.6037151-5.3312306-4.117-6.542-.0413293-.2566578-.0633909-.516049-.066-.776.0055105-2.9096544 2.3643416-5.2662493 5.274-5.269z"/><path id="Shape" d="m32 21v2c0 1.6568542 1.3431458 3 3 3s3-1.3431458 3-3v-2c0-1.6568542-1.3431458-3-3-3s-3 1.3431458-3 3zm4 0v2c0 .5522847-.4477153 1-1 1s-1-.4477153-1-1v-2c0-.5522847.4477153-1 1-1s1 .4477153 1 1z" fill-rule="nonzero"/><path id="Shape" d="m52 23v-2c0-1.6568542-1.3431458-3-3-3s-3 1.3431458-3 3v2c0 1.6568542 1.3431458 3 3 3s3-1.3431458 3-3zm-4 0v-2c0-.5522847.4477153-1 1-1s1 .4477153 1 1v2c0 .5522847-.4477153 1-1 1s-1-.4477153-1-1z" fill-rule="nonzero"/><path id="Shape" d="m49 36c-1.6568542 0-3 1.3431458-3 3v2c0 1.6568542 1.3431458 3 3 3s3-1.3431458 3-3v-2c0-1.6568542-1.3431458-3-3-3zm1 5c0 .5522847-.4477153 1-1 1s-1-.4477153-1-1v-2c0-.5522847.4477153-1 1-1s1 .4477153 1 1z" fill-rule="nonzero"/><path id="Path" d="m43 26c.5522847 0 1-.4477153 1-1v-6c-.0000863-.4043959-.2437275-.7689341-.6173454-.923678-.373618-.1547439-.8036603-.0692299-1.0896546.216678l-2 2c-.3789722.3923789-.3735524 1.0160848.0121814 1.4018186s1.0094397.3911536 1.4018186.0121814l.293-.293v3.586c0 .5522847.4477153 1 1 1z"/><path id="Shape" d="m38 41v-2c0-1.6568542-1.3431458-3-3-3s-3 1.3431458-3 3v2c0 1.6568542 1.3431458 3 3 3s3-1.3431458 3-3zm-2 0c0 .5522847-.4477153 1-1 1s-1-.4477153-1-1v-2c0-.5522847.4477153-1 1-1s1 .4477153 1 1z" fill-rule="nonzero"/><path id="Path" d="m43.383 36.076c-.3737776-.1548179-.8040145-.0691653-1.09.217l-2 2c-.3789722.3923789-.3735524 1.0160848.0121814 1.4018186s1.0094397.3911536 1.4018186.0121814l.293-.293v3.586c0 .5522847.4477153 1 1 1s1-.4477153 1-1v-6c.0001018-.4044291-.2434093-.7691037-.617-.924z"/><path id="Shape" d="m31 45c-1.6568542 0-3 1.3431458-3 3v2c0 1.6568542 1.3431458 3 3 3s3-1.3431458 3-3v-2c0-1.6568542-1.3431458-3-3-3zm1 5c0 .5522847-.4477153 1-1 1s-1-.4477153-1-1v-2c0-.5522847.4477153-1 1-1s1 .4477153 1 1z" fill-rule="nonzero"/><path id="Path" d="m39.383 45.076c-.3737776-.1548179-.8040145-.0691653-1.09.217l-2 2c-.3789722.3923789-.3735524 1.0160848.0121814 1.4018186s1.0094397.3911536 1.4018186.0121814l.293-.293v3.586c0 .5522847.4477153 1 1 1s1-.4477153 1-1v-6c.0001018-.4044291-.2434093-.7691037-.617-.924z"/><path id="Path" d="m28 43c0 .5522847.4477153 1 1 1s1-.4477153 1-1v-6c-.0000863-.4043959-.2437275-.7689341-.6173454-.923678-.373618-.1547439-.8036603-.0692299-1.0896546.216678l-2 2c-.3789722.3923789-.3735524 1.0160848.0121814 1.4018186s1.0094397.3911536 1.4018186.0121814l.293-.293z"/><path id="Path" d="m26.293 21.707c.3904999.3903819 1.0235001.3903819 1.414 0l.293-.293v3.586c0 .5522847.4477153 1 1 1s1-.4477153 1-1v-6c-.0000863-.4043959-.2437275-.7689341-.6173454-.923678-.373618-.1547439-.8036603-.0692299-1.0896546.216678l-2 2c-.3903819.3904999-.3903819 1.0235001 0 1.414z"/><path id="Shape" d="m31 9c-1.6568542 0-3 1.3431458-3 3v2c0 1.6568542 1.3431458 3 3 3s3-1.3431458 3-3v-2c0-1.6568542-1.3431458-3-3-3zm1 5c0 .5522847-.4477153 1-1 1s-1-.4477153-1-1v-2c0-.5522847.4477153-1 1-1s1 .4477153 1 1z" fill-rule="nonzero"/><path id="Path" d="m39.383 9.076c-.3737776-.15481793-.8040145-.06916527-1.09.217l-2 2c-.3789722.3923789-.3735524 1.0160848.0121814 1.4018186s1.0094397.3911536 1.4018186.0121814l.293-.293v3.586c0 .5522847.4477153 1 1 1s1-.4477153 1-1v-6c.0001018-.40442911-.2434093-.76910366-.617-.924z"/><path id="Shape" d="m28 30v2c0 1.6568542 1.3431458 3 3 3s3-1.3431458 3-3v-2c0-1.6568542-1.3431458-3-3-3s-3 1.3431458-3 3zm4 0v2c0 .5522847-.4477153 1-1 1s-1-.4477153-1-1v-2c0-.5522847.4477153-1 1-1s1 .4477153 1 1z" fill-rule="nonzero"/><path id="Path" d="m39 35c.5522847 0 1-.4477153 1-1v-6c-.0000863-.4043959-.2437275-.7689341-.6173454-.923678-.373618-.1547439-.8036603-.0692299-1.0896546.216678l-2 2c-.3789722.3923789-.3735524 1.0160848.0121814 1.4018186s1.0094397.3911536 1.4018186.0121814l.293-.293v3.586c0 .5522847.4477153 1 1 1z"/><path id="Path" d="m52.383 27.076c-.3737776-.1548179-.8040145-.0691653-1.09.217l-2 2c-.3789722.3923789-.3735524 1.0160848.0121814 1.4018186s1.0094397.3911536 1.4018186.0121814l.293-.293v3.586c0 .5522847.4477153 1 1 1s1-.4477153 1-1v-6c.0001018-.4044291-.2434093-.7691037-.617-.924z"/><path id="Shape" d="m48 32v-2c0-1.6568542-1.3431458-3-3-3s-3 1.3431458-3 3v2c0 1.6568542 1.3431458 3 3 3s3-1.3431458 3-3zm-2 0c0 .5522847-.4477153 1-1 1s-1-.4477153-1-1v-2c0-.5522847.4477153-1 1-1s1 .4477153 1 1z" fill-rule="nonzero"/></g></g></g></g></svg>